<?xml version="1.0" standalone="no"?>
<!DOCTYPE svg PUBLIC "-//W3C//DTD SVG 20010904//EN"
 "http://www.w3.org/TR/2001/REC-SVG-20010904/DTD/svg10.dtd">
<svg version="1.0" xmlns="http://www.w3.org/2000/svg"
 width="240.000000pt" height="240.000000pt" viewBox="0 0 240.000000 240.000000"
 preserveAspectRatio="xMidYMid meet">

<g transform="translate(0.000000,240.000000) scale(0.100000,-0.100000)"
fill="#000000" stroke="none">
<path d="M1448 1864 c-32 -7 -81 -25 -109 -39 -43 -22 -67 -27 -152 -30 -178
-6 -303 -61 -433 -190 -66 -65 -89 -96 -121 -165 -65 -137 -83 -253 -60 -385
10 -53 11 -84 5 -92 -17 -21 -1 -56 52 -117 35 -40 55 -74 66 -114 9 -31 23
-67 31 -79 13 -20 12 -26 -11 -66 l-26 -45 22 -6 c39 -10 131 -7 185 7 33 9
57 10 68 4 29 -16 75 -26 80 -17 3 4 51 5 108 3 241 -13 446 88 576 283 71
106 103 210 104 339 2 148 -37 274 -117 383 -26 37 -33 54 -29 79 4 28 1 34
-35 58 -21 14 -48 42 -58 61 -11 19 -29 42 -41 50 -18 11 -23 24 -23 54 0 45
1 45 -82 24z m59 -44 c-5 -25 -2 -32 22 -46 15 -9 36 -32 47 -52 10 -19 36
-46 56 -60 21 -13 38 -31 38 -38 0 -7 -14 -29 -31 -49 l-31 -35 -104 0 c-166
0 -260 -44 -309 -145 -24 -49 -28 -71 -34 -202 -8 -163 -16 -189 -75 -240 -77
-68 -168 -69 -302 -2 -72 35 -91 41 -129 36 l-45 -5 -11 41 c-17 63 -14 213 6
287 27 106 80 196 165 281 125 125 253 181 427 184 78 1 108 6 128 19 37 24
124 54 159 55 26 1 28 -1 23 -29z m-709 -1092 c15 -15 16 -41 0 -36 -6 2 -18
14 -26 26 -12 19 -12 22 0 22 8 0 19 -5 26 -12z"/>
<path d="M1490 1736 c0 -16 38 -42 47 -32 7 7 -5 24 -28 36 -15 8 -19 7 -19
-4z"/>
</g>
</svg>
